<svg width="105" height="55" viewBox="0 0 105 55" fill="none" xmlns="http://www.w3.org/2000/svg">
<path d="M15.376 22L9.2 13.04C12.368 12.912 15.12 10.768 15.12 6.896C15.12 2.992 12.304 0.655998 8.624 0.655998H0.656V22H2.48V13.168H7.184L13.168 22H15.376ZM13.2 6.896C13.2 9.584 11.28 11.504 8.464 11.504H2.48V2.32H8.464C11.28 2.32 13.2 4.208 13.2 6.896ZM44.392 22V20.336H32.68V11.888H44.168V10.224H32.68V2.32H44.392V0.655998H30.856V22H44.392ZM77.6865 22L68.9505 0.655998H66.6785L57.9425 22H59.9905L62.1345 16.752H73.4945L75.6385 22H77.6865ZM72.9185 15.088H62.7105L67.7985 2.448L72.9185 15.088ZM104.197 22V20.336H93.8612V0.655998H92.0372V22H104.197ZM2.48 54V32.656H0.656V54H2.48ZM15.397 50.992C17.029 52.976 19.685 54.384 23.205 54.384C28.965 54.384 30.789 51.088 30.789 48.336C30.789 44.016 27.013 42.928 23.557 41.936C20.645 41.168 17.989 40.432 17.989 37.904C17.989 35.6 20.133 33.968 22.981 33.968C25.381 33.968 27.557 34.8 29.093 36.656L30.309 35.312C28.645 33.424 26.277 32.304 23.077 32.304C19.205 32.304 16.069 34.512 16.069 38C16.069 41.936 19.653 42.896 23.013 43.824C26.021 44.624 28.869 45.456 28.869 48.464C28.869 50.288 27.621 52.72 23.237 52.72C20.197 52.72 17.957 51.216 16.581 49.616L15.397 50.992ZM51.177 54V34.32H58.153V32.656H42.345V34.32H49.321V54H51.177ZM72.5675 54V32.656H70.7435V54H72.5675ZM96.6205 54.384C100.076 54.384 102.572 52.912 104.46 50.576L102.924 49.616C101.58 51.472 99.2445 52.72 96.6205 52.72C91.6605 52.72 87.7885 48.848 87.7885 43.344C87.7885 37.776 91.6605 33.968 96.6205 33.968C99.2445 33.968 101.58 35.216 102.924 37.072L104.46 36.08C102.636 33.808 100.076 32.304 96.6205 32.304C90.6365 32.304 85.8685 36.784 85.8685 43.344C85.8685 49.904 90.6365 54.384 96.6205 54.384Z" fill="black"/>
</svg>
